<svg width="26" height="26" viewBox="0 0 26 26" fill="none" xmlns="http://www.w3.org/2000/svg">
<path d="M12.603 2.3758H5.48252C5.34603 2.3758 5.30053 2.33034 5.30053 2.19398V0.557617H0V7.3758C0 7.58034 0.113745 7.67125 0.341236 7.67125H2.82088L9.25886 25.5576H12.603H15.9698L22.3851 7.67125H24.8875C25.1149 7.67125 25.2287 7.58034 25.2287 7.3758V0.557617H19.9282V2.19398C19.9282 2.33034 19.8599 2.3758 19.7234 2.3758H12.603ZM12.603 18.6485C12.4665 18.6485 12.3527 18.5576 12.3072 18.3985L8.62189 8.10307C8.57639 7.98944 8.57639 7.89853 8.64464 7.80762C8.71288 7.71671 8.80388 7.67125 8.91763 7.67125H12.603H16.3111C16.4248 7.67125 16.4931 7.71671 16.5613 7.80762C16.6296 7.89853 16.6523 7.98944 16.6068 8.10307L12.9215 18.3985C12.876 18.5576 12.7622 18.6485 12.603 18.6485Z" fill="black"/>
</svg>
